# xmcd
#
# Track frame offsets: 
#        150
#        15510
#        30917
#        49852
#        65965
#        81207
#        98275
#        113417
#        124675
#        138672
#        152760
#        167300
#        186107
#
# Disc length: 2733 seconds
#
# Revision: 0
# Processed by: cddbd v1.5.2PL0 Copyright (c) Steve Scherf et al.
# Submitted via: ExactAudioCopyFreeDBPlugin 1.0
#
DISCID=970aab0d
DTITLE=Katie Melua - Call off the Search
DYEAR=2003
DGENRE=Club
TTITLE0=Call off the search 
TTITLE1=Crawling up a hill 
TTITLE2=The closest thing to crazy 
TTITLE3=My aphrodisiac is you 
TTITLE4=Learnin' the blues 
TTITLE5=Blame it on the moon 
TTITLE6=Belfast (Penguins and Cats) 
TTITLE7=I think it's going to rain today
TTITLE8=Mockingbird song 
TTITLE9=Tiger in the night 
TTITLE10=Faraway voice 
TTITLE11=Lilac wine 
TTITLE12=Katie Melua - Starting out, 2003
EXTD=
EXTT0=
EXTT1=
EXTT2=
EXTT3=
EXTT4=
EXTT5=
EXTT6=
EXTT7=
EXTT8=
EXTT9=
EXTT10=
EXTT11=
EXTT12=
PLAYORDER=
